# Exported from ProBuilder
# http://www.procore3d.com/probuilder
# 5/30/2018 11:51:12 PM

mtllib ./Cone.mtl
o Cone

g Cone
v 0 0 0
v 0.01921475 0 0.1950903
v 1 2 0
v 0 0 0
v 0.01921475 0 0.1950903
v 1 0 0
v 0.01921475 0 0.1950903
v 0.0761205 0 0.3826835
v 1 2 0
v 0.01921475 0 0.1950903
v 0.0761205 0 0.3826835
v 1 0 0
v 0.0761205 0 0.3826835
v 0.1685304 0 0.5555702
v 1 2 0
v 0.0761205 0 0.3826835
v 0.1685304 0 0.5555702
v 1 0 0
v 0.1685304 0 0.5555702
v 0.2928932 0 0.7071068
v 1 2 0
v 0.1685304 0 0.5555702
v 0.2928932 0 0.7071068
v 1 0 0
v 0.2928932 0 0.7071068
v 0.4444298 0 0.8314696
v 1 2 0
v 0.2928932 0 0.7071068
v 0.4444298 0 0.8314696
v 1 0 0
v 0.4444298 0 0.8314696
v 0.6173166 0 0.9238795
v 1 2 0
v 0.4444298 0 0.8314696
v 0.6173166 0 0.9238795
v 1 0 0
v 0.6173166 0 0.9238795
v 0.8049096 0 0.9807853
v 1 2 0
v 0.6173166 0 0.9238795
v 0.8049096 0 0.9807853
v 1 0 0
v 0.8049096 0 0.9807853
v 1 0 1
v 1 2 0
v 0.8049096 0 0.9807853
v 1 0 1
v 1 0 0
v 1 0 1
v 1.19509 0 0.9807853
v 1 2 0
v 1 0 1
v 1.19509 0 0.9807853
v 1 0 0
v 1.19509 0 0.9807853
v 1.382683 0 0.9238796
v 1 2 0
v 1.19509 0 0.9807853
v 1.382683 0 0.9238796
v 1 0 0
v 1.382683 0 0.9238796
v 1.55557 0 0.8314697
v 1 2 0
v 1.382683 0 0.9238796
v 1.55557 0 0.8314697
v 1 0 0
v 1.55557 0 0.8314697
v 1.707107 0 0.7071068
v 1 2 0
v 1.55557 0 0.8314697
v 1.707107 0 0.7071068
v 1 0 0
v 1.707107 0 0.7071068
v 1.83147 0 0.5555702
v 1 2 0
v 1.707107 0 0.7071068
v 1.83147 0 0.5555702
v 1 0 0
v 1.83147 0 0.5555702
v 1.92388 0 0.3826835
v 1 2 0
v 1.83147 0 0.5555702
v 1.92388 0 0.3826835
v 1 0 0
v 1.92388 0 0.3826835
v 1.980785 0 0.1950903
v 1 2 0
v 1.92388 0 0.3826835
v 1.980785 0 0.1950903
v 1 0 0
v 1.980785 0 0.1950903
v 2 0 -8.742278E-08
v 1 2 0
v 1.980785 0 0.1950903
v 2 0 -8.742278E-08
v 1 0 0
v 2 0 -8.742278E-08
v 1.980785 0 -0.1950902
v 1 2 0
v 2 0 -8.742278E-08
v 1.980785 0 -0.1950902
v 1 0 0
v 1.980785 0 -0.1950902
v 1.92388 0 -0.3826834
v 1 2 0
v 1.980785 0 -0.1950902
v 1.92388 0 -0.3826834
v 1 0 0
v 1.92388 0 -0.3826834
v 1.83147 0 -0.5555703
v 1 2 0
v 1.92388 0 -0.3826834
v 1.83147 0 -0.5555703
v 1 0 0
v 1.83147 0 -0.5555703
v 1.707107 0 -0.7071067
v 1 2 0
v 1.83147 0 -0.5555703
v 1.707107 0 -0.7071067
v 1 0 0
v 1.707107 0 -0.7071067
v 1.55557 0 -0.8314695
v 1 2 0
v 1.707107 0 -0.7071067
v 1.55557 0 -0.8314695
v 1 0 0
v 1.55557 0 -0.8314695
v 1.382684 0 -0.9238795
v 1 2 0
v 1.55557 0 -0.8314695
v 1.382684 0 -0.9238795
v 1 0 0
v 1.382684 0 -0.9238795
v 1.19509 0 -0.9807853
v 1 2 0
v 1.382684 0 -0.9238795
v 1.19509 0 -0.9807853
v 1 0 0
v 1.19509 0 -0.9807853
v 1 0 -1
v 1 2 0
v 1.19509 0 -0.9807853
v 1 0 -1
v 1 0 0
v 1 0 -1
v 0.8049096 0 -0.9807853
v 1 2 0
v 1 0 -1
v 0.8049096 0 -0.9807853
v 1 0 0
v 0.8049096 0 -0.9807853
v 0.6173164 0 -0.9238794
v 1 2 0
v 0.8049096 0 -0.9807853
v 0.6173164 0 -0.9238794
v 1 0 0
v 0.6173164 0 -0.9238794
v 0.4444299 0 -0.8314697
v 1 2 0
v 0.6173164 0 -0.9238794
v 0.4444299 0 -0.8314697
v 1 0 0
v 0.4444299 0 -0.8314697
v 0.2928934 0 -0.7071069
v 1 2 0
v 0.4444299 0 -0.8314697
v 0.2928934 0 -0.7071069
v 1 0 0
v 0.2928934 0 -0.7071069
v 0.1685304 0 -0.5555703
v 1 2 0
v 0.2928934 0 -0.7071069
v 0.1685304 0 -0.5555703
v 1 0 0
v 0.1685304 0 -0.5555703
v 0.07612044 0 -0.3826834
v 1 2 0
v 0.1685304 0 -0.5555703
v 0.07612044 0 -0.3826834
v 1 0 0
v 0.07612044 0 -0.3826834
v 0.01921469 0 -0.1950902
v 1 2 0
v 0.07612044 0 -0.3826834
v 0.01921469 0 -0.1950902
v 1 0 0
v 0.01921469 0 -0.1950902
v 0 0 0
v 1 2 0
v 0.01921469 0 -0.1950902
v 0 0 0
v 1 0 0

vn -0.8909767 0.4454883 0.08775368
vn -0.8909767 0.4454883 0.08775368
vn -0.8909767 0.4454883 0.08775368
vn 0 -0.9999999 0
vn 0 -0.9999999 0
vn 0 -0.9999999 0
vn -0.8567369 0.4454883 0.2598883
vn -0.8567369 0.4454883 0.2598883
vn -0.8567369 0.4454883 0.2598883
vn 0 -1 0
vn 0 -1 0
vn 0 -1 0
vn -0.7895733 0.4454884 0.4220357
vn -0.7895733 0.4454884 0.4220357
vn -0.7895733 0.4454884 0.4220357
vn 0 -1 0
vn 0 -1 0
vn 0 -1 0
vn -0.6920667 0.4454883 0.5679646
vn -0.6920667 0.4454883 0.5679646
vn -0.6920667 0.4454883 0.5679646
vn 0 -1 0
vn 0 -1 0
vn 0 -1 0
vn -0.5679646 0.4454883 0.6920667
vn -0.5679646 0.4454883 0.6920667
vn -0.5679646 0.4454883 0.6920667
vn 0 -1 0
vn 0 -1 0
vn 0 -1 0
vn -0.4220356 0.4454883 0.7895734
vn -0.4220356 0.4454883 0.7895734
vn -0.4220356 0.4454883 0.7895734
vn 0 -1 0
vn 0 -1 0
vn 0 -1 0
vn -0.2598884 0.4454884 0.856737
vn -0.2598884 0.4454884 0.856737
vn -0.2598884 0.4454884 0.856737
vn 0 -1 0
vn 0 -1 0
vn 0 -1 0
vn -0.08775367 0.4454883 0.8909767
vn -0.08775367 0.4454883 0.8909767
vn -0.08775367 0.4454883 0.8909767
vn 0 -1 0
vn 0 -1 0
vn 0 -1 0
vn 0.08775368 0.4454883 0.8909766
vn 0.08775368 0.4454883 0.8909766
vn 0.08775368 0.4454883 0.8909766
vn 0 -1 0
vn 0 -1 0
vn 0 -1 0
vn 0.2598881 0.4454883 0.856737
vn 0.2598881 0.4454883 0.856737
vn 0.2598881 0.4454883 0.856737
vn 0 -1 0
vn 0 -1 0
vn 0 -1 0
vn 0.4220358 0.4454884 0.7895732
vn 0.4220358 0.4454884 0.7895732
vn 0.4220358 0.4454884 0.7895732
vn 0 -1 0
vn 0 -1 0
vn 0 -1 0
vn 0.5679643 0.4454884 0.6920669
vn 0.5679643 0.4454884 0.6920669
vn 0.5679643 0.4454884 0.6920669
vn 0 -1 0
vn 0 -1 0
vn 0 -1 0
vn 0.6920668 0.4454883 0.5679644
vn 0.6920668 0.4454883 0.5679644
vn 0.6920668 0.4454883 0.5679644
vn 0 -1 0
vn 0 -1 0
vn 0 -1 0
vn 0.7895734 0.4454884 0.4220357
vn 0.7895734 0.4454884 0.4220357
vn 0.7895734 0.4454884 0.4220357
vn 0 -1 0
vn 0 -1 0
vn 0 -1 0
vn 0.8567368 0.4454884 0.2598887
vn 0.8567368 0.4454884 0.2598887
vn 0.8567368 0.4454884 0.2598887
vn 0 -1 0
vn 0 -1 0
vn 0 -1 0
vn 0.8909767 0.4454884 0.0877531
vn 0.8909767 0.4454884 0.0877531
vn 0.8909767 0.4454884 0.0877531
vn 0 -1 0
vn 0 -1 0
vn 0 -1 0
vn 0.8909767 0.4454884 -0.08775321
vn 0.8909767 0.4454884 -0.08775321
vn 0.8909767 0.4454884 -0.08775321
vn 0 -0.9999999 0
vn 0 -0.9999999 0
vn 0 -0.9999999 0
vn 0.8567368 0.4454883 -0.2598887
vn 0.8567368 0.4454883 -0.2598887
vn 0.8567368 0.4454883 -0.2598887
vn 0 -1 0
vn 0 -1 0
vn 0 -1 0
vn 0.7895733 0.4454883 -0.4220358
vn 0.7895733 0.4454883 -0.4220358
vn 0.7895733 0.4454883 -0.4220358
vn 0 -0.9999999 0
vn 0 -0.9999999 0
vn 0 -0.9999999 0
vn 0.6920667 0.4454883 -0.5679645
vn 0.6920667 0.4454883 -0.5679645
vn 0.6920667 0.4454883 -0.5679645
vn 0 -1 0
vn 0 -1 0
vn 0 -1 0
vn 0.5679645 0.4454884 -0.6920667
vn 0.5679645 0.4454884 -0.6920667
vn 0.5679645 0.4454884 -0.6920667
vn 0 -1 0
vn 0 -1 0
vn 0 -1 0
vn 0.422036 0.4454884 -0.7895731
vn 0.422036 0.4454884 -0.7895731
vn 0.422036 0.4454884 -0.7895731
vn 0 -0.9999999 0
vn 0 -0.9999999 0
vn 0 -0.9999999 0
vn 0.2598883 0.4454884 -0.856737
vn 0.2598883 0.4454884 -0.856737
vn 0.2598883 0.4454884 -0.856737
vn 0 -1 0
vn 0 -1 0
vn 0 -1 0
vn 0.08775364 0.4454883 -0.8909767
vn 0.08775364 0.4454883 -0.8909767
vn 0.08775364 0.4454883 -0.8909767
vn 0 -0.9999999 0
vn 0 -0.9999999 0
vn 0 -0.9999999 0
vn -0.08775364 0.4454883 -0.8909767
vn -0.08775364 0.4454883 -0.8909767
vn -0.08775364 0.4454883 -0.8909767
vn 0 -0.9999999 0
vn 0 -0.9999999 0
vn 0 -0.9999999 0
vn -0.2598884 0.4454884 -0.8567369
vn -0.2598884 0.4454884 -0.8567369
vn -0.2598884 0.4454884 -0.8567369
vn 0 -1 0
vn 0 -1 0
vn 0 -1 0
vn -0.4220358 0.4454883 -0.7895733
vn -0.4220358 0.4454883 -0.7895733
vn -0.4220358 0.4454883 -0.7895733
vn 0 -0.9999999 0
vn 0 -0.9999999 0
vn 0 -0.9999999 0
vn -0.5679644 0.4454883 -0.6920668
vn -0.5679644 0.4454883 -0.6920668
vn -0.5679644 0.4454883 -0.6920668
vn 0 -1 0
vn 0 -1 0
vn 0 -1 0
vn -0.6920666 0.4454884 -0.5679647
vn -0.6920666 0.4454884 -0.5679647
vn -0.6920666 0.4454884 -0.5679647
vn 0 -1 0
vn 0 -1 0
vn 0 -1 0
vn -0.7895733 0.4454883 -0.4220358
vn -0.7895733 0.4454883 -0.4220358
vn -0.7895733 0.4454883 -0.4220358
vn 0 -0.9999999 0
vn 0 -0.9999999 0
vn 0 -0.9999999 0
vn -0.856737 0.4454883 -0.2598882
vn -0.856737 0.4454883 -0.2598882
vn -0.856737 0.4454883 -0.2598882
vn 0 -1 0
vn 0 -1 0
vn 0 -1 0
vn -0.8909767 0.4454884 -0.08775345
vn -0.8909767 0.4454884 -0.08775345
vn -0.8909767 0.4454884 -0.08775345
vn 0 -0.9999999 0
vn 0 -0.9999999 0
vn 0 -0.9999999 0

vt 0 0
vt 0.1960343 1.173855E-09
vt 0.09801728 2.233919
vt 0 0
vt 0.01921475 0.1950903
vt 1 0
vt 0.1922676 -0.01703742
vt 0.3883018 -0.01703742
vt 0.2902847 2.216881
vt 0.01921475 0.1950903
vt 0.0761205 0.3826835
vt 1 0
vt 0.3733796 -0.05045755
vt 0.5694139 -0.05045755
vt 0.4713967 2.183461
vt 0.0761205 0.3826835
vt 0.1685304 0.5555702
vt 1 0
vt 0.5363762 -0.09897606
vt 0.7324104 -0.09897606
vt 0.6343933 2.134943
vt 0.1685304 0.5555702
vt 0.2928932 0.7071068
vt 1 0
vt 0.6749933 -0.1607284
vt 0.8710276 -0.1607284
vt 0.7730104 2.07319
vt 0.2928932 0.7071068
vt 0.4444298 0.8314696
vt 1 0
vt 0.783904 -0.2333415
vt 0.9799383 -0.2333415
vt 0.8819214 2.000577
vt 0.4444298 0.8314696
vt 0.6173166 0.9238795
vt 1 0
vt 0.8589233 -0.3140247
vt 1.054958 -0.3140247
vt 0.9569404 1.919894
vt 0.6173166 0.9238795
vt 0.8049096 0.9807853
vt 1 0
vt 0.8971677 -0.3996776
vt 1.093202 -0.3996776
vt 0.9951847 1.834241
vt 0.8049096 0.9807853
vt 1 1
vt 1 0
vt 0.8971674 -0.4870088
vt 1.093202 -0.4870088
vt 0.9951847 1.74691
vt 1 1
vt 1.19509 0.9807853
vt 1 0
vt 0.8589236 -0.5726615
vt 1.054958 -0.5726615
vt 0.9569404 1.661257
vt 1.19509 0.9807853
vt 1.382683 0.9238796
vt 1 0
vt 0.783904 -0.653345
vt 0.9799381 -0.653345
vt 0.8819212 1.580574
vt 1.382683 0.9238796
vt 1.55557 0.8314697
vt 1 0
vt 0.6749938 -0.7259579
vt 0.8710282 -0.7259579
vt 0.7730107 1.507961
vt 1.55557 0.8314697
vt 1.707107 0.7071068
vt 1 0
vt 0.5363759 -0.7877104
vt 0.7324103 -0.7877104
vt 0.6343932 1.446208
vt 1.707107 0.7071068
vt 1.83147 0.5555702
vt 1 0
vt 0.3733795 -0.8362289
vt 0.5694136 -0.8362289
vt 0.4713967 1.39769
vt 1.83147 0.5555702
vt 1.92388 0.3826835
vt 1 0
vt 0.1922684 -0.869649
vt 0.3883027 -0.869649
vt 0.2902851 1.36427
vt 1.92388 0.3826835
vt 1.980785 0.1950903
vt 1 0
vt -9.753212E-07 -0.8866865
vt 0.1960334 -0.8866865
vt 0.09801664 1.347232
vt 1.980785 0.1950903
vt 2 -8.742278E-08
vt 1 0
vt -0.1960334 -0.8866865
vt 6.651175E-07 -0.8866865
vt -0.09801677 1.347232
vt 2 -8.742278E-08
vt 1.980785 -0.1950902
vt 1 0
vt -0.3883028 -0.869649
vt -0.1922684 -0.869649
vt -0.2902851 1.36427
vt 1.980785 -0.1950902
vt 1.92388 -0.3826834
vt 1 0
vt -0.569414 -0.8362289
vt -0.3733796 -0.8362289
vt -0.4713968 1.39769
vt 1.92388 -0.3826834
vt 1.83147 -0.5555703
vt 1 0
vt -0.7324103 -0.7877102
vt -0.5363762 -0.7877102
vt -0.6343933 1.446208
vt 1.83147 -0.5555703
vt 1.707107 -0.7071067
vt 1 0
vt -0.8710276 -0.725958
vt -0.6749935 -0.725958
vt -0.7730104 1.507961
vt 1.707107 -0.7071067
vt 1.55557 -0.8314695
vt 1 0
vt -0.979938 -0.6533451
vt -0.7839037 -0.6533451
vt -0.8819211 1.580574
vt 1.55557 -0.8314695
vt 1.382684 -0.9238795
vt 1 0
vt -1.054958 -0.5726616
vt -0.8589233 -0.5726616
vt -0.9569404 1.661257
vt 1.382684 -0.9238795
vt 1.19509 -0.9807853
vt 1 0
vt -1.093202 -0.4870088
vt -0.8971675 -0.4870088
vt -0.9951847 1.74691
vt 1.19509 -0.9807853
vt 1 -1
vt 1 0
vt -1.093202 -0.3996777
vt -0.8971676 -0.3996777
vt -0.9951847 1.834241
vt 1 -1
vt 0.8049096 -0.9807853
vt 1 0
vt -1.054958 -0.3140247
vt -0.8589231 -0.3140247
vt -0.9569404 1.919894
vt 0.8049096 -0.9807853
vt 0.6173164 -0.9238794
vt 1 0
vt -0.9799382 -0.2333415
vt -0.7839044 -0.2333415
vt -0.8819213 2.000577
vt 0.6173164 -0.9238794
vt 0.4444299 -0.8314697
vt 1 0
vt -0.8710277 -0.1607284
vt -0.6749934 -0.1607284
vt -0.7730105 2.07319
vt 0.4444299 -0.8314697
vt 0.2928934 -0.7071069
vt 1 0
vt -0.7324106 -0.09897614
vt -0.5363761 -0.09897615
vt -0.6343936 2.134943
vt 0.2928934 -0.7071069
vt 0.1685304 -0.5555703
vt 1 0
vt -0.569414 -0.05045757
vt -0.3733796 -0.05045757
vt -0.4713968 2.183461
vt 0.1685304 -0.5555703
vt 0.07612044 -0.3826834
vt 1 0
vt -0.3883018 -0.01703742
vt -0.1922675 -0.01703742
vt -0.2902845 2.216882
vt 0.07612044 -0.3826834
vt 0.01921469 -0.1950902
vt 1 0
vt -0.1960342 3.014535E-10
vt 0 0
vt -0.09801704 2.233919
vt 0.01921469 -0.1950902
vt 0 0
vt 1 0

g Cone
usemtl Default_Prototype
f 1/1/1 2/2/2 3/3/3
f 6/6/6 5/5/5 4/4/4
f 7/7/7 8/8/8 9/9/9
f 12/12/12 11/11/11 10/10/10
f 13/13/13 14/14/14 15/15/15
f 18/18/18 17/17/17 16/16/16
f 19/19/19 20/20/20 21/21/21
f 24/24/24 23/23/23 22/22/22
f 25/25/25 26/26/26 27/27/27
f 30/30/30 29/29/29 28/28/28
f 31/31/31 32/32/32 33/33/33
f 36/36/36 35/35/35 34/34/34
f 37/37/37 38/38/38 39/39/39
f 42/42/42 41/41/41 40/40/40
f 43/43/43 44/44/44 45/45/45
f 48/48/48 47/47/47 46/46/46
f 49/49/49 50/50/50 51/51/51
f 54/54/54 53/53/53 52/52/52
f 55/55/55 56/56/56 57/57/57
f 60/60/60 59/59/59 58/58/58
f 61/61/61 62/62/62 63/63/63
f 66/66/66 65/65/65 64/64/64
f 67/67/67 68/68/68 69/69/69
f 72/72/72 71/71/71 70/70/70
f 73/73/73 74/74/74 75/75/75
f 78/78/78 77/77/77 76/76/76
f 79/79/79 80/80/80 81/81/81
f 84/84/84 83/83/83 82/82/82
f 85/85/85 86/86/86 87/87/87
f 90/90/90 89/89/89 88/88/88
f 91/91/91 92/92/92 93/93/93
f 96/96/96 95/95/95 94/94/94
f 97/97/97 98/98/98 99/99/99
f 102/102/102 101/101/101 100/100/100
f 103/103/103 104/104/104 105/105/105
f 108/108/108 107/107/107 106/106/106
f 109/109/109 110/110/110 111/111/111
f 114/114/114 113/113/113 112/112/112
f 115/115/115 116/116/116 117/117/117
f 120/120/120 119/119/119 118/118/118
f 121/121/121 122/122/122 123/123/123
f 126/126/126 125/125/125 124/124/124
f 127/127/127 128/128/128 129/129/129
f 132/132/132 131/131/131 130/130/130
f 133/133/133 134/134/134 135/135/135
f 138/138/138 137/137/137 136/136/136
f 139/139/139 140/140/140 141/141/141
f 144/144/144 143/143/143 142/142/142
f 145/145/145 146/146/146 147/147/147
f 150/150/150 149/149/149 148/148/148
f 151/151/151 152/152/152 153/153/153
f 156/156/156 155/155/155 154/154/154
f 157/157/157 158/158/158 159/159/159
f 162/162/162 161/161/161 160/160/160
f 163/163/163 164/164/164 165/165/165
f 168/168/168 167/167/167 166/166/166
f 169/169/169 170/170/170 171/171/171
f 174/174/174 173/173/173 172/172/172
f 175/175/175 176/176/176 177/177/177
f 180/180/180 179/179/179 178/178/178
f 181/181/181 182/182/182 183/183/183
f 186/186/186 185/185/185 184/184/184
f 187/187/187 188/188/188 189/189/189
f 192/192/192 191/191/191 190/190/190

